<svg id="Layer_1" data-name="Layer 1" xmlns="http://www.w3.org/2000/svg" xmlns:xlink="http://www.w3.org/1999/xlink" viewBox="0 0 24.11 20.12"><defs><style>.cls-1{fill:none;}.cls-2{clip-path:url(#clip-path);}.cls-3{fill:#1a1a1a;}</style><clipPath id="clip-path" transform="translate(-0.53 -0.5)"><rect class="cls-1" x="0.07" y="0.07" width="25" height="20.98"/></clipPath></defs><title>Ico_Twitter_Hover</title><g class="cls-2"><path class="cls-3" d="M24.64,2.88a9.66,9.66,0,0,1-2.84.8A5.07,5.07,0,0,0,24,.87,9.75,9.75,0,0,1,20.83,2.1,4.89,4.89,0,0,0,17.21.5a5,5,0,0,0-5,5s0,.05,0,.08a5.16,5.16,0,0,0,.13,1.16A13.94,13.94,0,0,1,2.18,1.43,5.18,5.18,0,0,0,1.51,4a5.11,5.11,0,0,0,2.2,4.23,4.86,4.86,0,0,1-2.24-.63v.06a5,5,0,0,0,4,5,4.72,4.72,0,0,1-1.31.18,4.8,4.8,0,0,1-.93-.09,5,5,0,0,0,4.63,3.53,9.78,9.78,0,0,1-6.15,2.18,10,10,0,0,1-1.18-.07,13.79,13.79,0,0,0,7.54,2.24c9.11,0,14.09-7.74,14.09-14.45V5.51a10.16,10.16,0,0,0,2.47-2.63" transform="translate(-0.53 -0.5)"/></g></svg>