<svg id="Layer_1" data-name="Layer 1" xmlns="http://www.w3.org/2000/svg" xmlns:xlink="http://www.w3.org/1999/xlink" viewBox="0 0 24.07 21.97"><defs><style>.cls-1,.cls-3{fill:none;}.cls-2{clip-path:url(#clip-path);}.cls-3{stroke:#1a1a1a;stroke-linecap:round;stroke-linejoin:round;}</style><clipPath id="clip-path" transform="translate(0.06 -3.08)"><rect class="cls-1" y="3.14" width="23.96" height="21.86"/></clipPath></defs><title>Ico_LinkedIn</title><g class="cls-2"><path class="cls-3" d="M1,10.31h4.5V24.56H1ZM3.16,8.53h0a2.48,2.48,0,1,1,.06-4.94,2.48,2.48,0,1,1,0,4.94Zm20.36,16h-5.1V17.18c0-1.93-.8-3.25-2.55-3.25a2.57,2.57,0,0,0-2.43,1.75,3.24,3.24,0,0,0-.11,1.16v7.71H8.27s.06-13.06,0-14.25h5.05v2.24c.3-1,1.91-2.37,4.49-2.37,3.2,0,5.71,2.05,5.71,6.46Z" transform="translate(0.06 -3.08)"/></g></svg>