<svg id="Layer_1" data-name="Layer 1" xmlns="http://www.w3.org/2000/svg" xmlns:xlink="http://www.w3.org/1999/xlink" viewBox="0 0 23.03 20.98"><defs><style>.cls-1{fill:none;}.cls-2{clip-path:url(#clip-path);}.cls-3{fill:#1a1a1a;}</style><clipPath id="clip-path" transform="translate(-0.55 -0.5)"><rect class="cls-1" x="0.06" y="0.06" width="23.96" height="21.86"/></clipPath></defs><title>Ico_LinkedIn_Hover</title><g class="cls-2"><path class="cls-3" d="M1.06,7.23h4.5V21.48H1.06ZM3.22,5.45h0A2.48,2.48,0,1,1,3.28.51a2.48,2.48,0,1,1,0,4.94Zm20.36,16h-5.1V14.1c0-1.93-.8-3.25-2.55-3.25A2.57,2.57,0,0,0,13.5,12.6a3.24,3.24,0,0,0-.11,1.16v7.71H8.33s.06-13.06,0-14.25h5.05V9.46c.3-1,1.91-2.37,4.49-2.37,3.2,0,5.71,2.05,5.71,6.46Z" transform="translate(-0.55 -0.5)"/></g></svg>